<svg width="678" height="209" viewBox="0 0 678 209" fill="none" xmlns="http://www.w3.org/2000/svg">
<path d="M21.8 3V38H14.25V15.25H5.75V10H6.65C11.95 10 15.05 7.7 15.95 3H21.8ZM55.1832 31.85V38.05H29.5332C29.5332 36.45 29.7332 35 30.1332 33.7C30.5332 32.4 30.9832 31.3 31.4832 30.4C31.9832 29.5 32.7832 28.55 33.8832 27.55C34.9332 26.55 35.8832 25.75 36.6832 25.15C37.4832 24.55 38.6832 23.7 40.2832 22.65C40.4832 22.5 40.9832 22.15 41.8832 21.6C42.7332 21 43.3332 20.6 43.6832 20.4C43.9832 20.15 44.4832 19.75 45.1832 19.15C45.8332 18.55 46.2832 18.05 46.5832 17.6C46.8832 17.2 47.1332 16.65 47.4332 16C47.6832 15.35 47.8332 14.65 47.8332 13.95C47.8332 12.45 47.3332 11.2 46.4332 10.3C45.5332 9.4 44.3332 8.9 42.8332 8.9C39.2332 8.9 37.3332 11.45 37.1332 16.5H30.3332V15.75C30.3332 11.8 31.4832 8.65 33.7832 6.3C36.0832 3.95 39.1832 2.75 43.0832 2.75C46.5832 2.75 49.4832 3.75 51.6832 5.75C53.8832 7.75 54.9832 10.3 54.9832 13.45C54.9832 16.05 54.3832 18.1 53.2332 19.6C52.0332 21.15 50.2332 22.75 47.7332 24.45C47.3832 24.7 46.7832 25.1 45.8832 25.7C44.9832 26.3 44.2332 26.75 43.7332 27.15C43.2332 27.5 42.5832 27.95 41.8832 28.5C41.1332 29.1 40.4832 29.65 39.9832 30.2C39.4332 30.75 38.9832 31.3 38.6332 31.85H55.1832ZM71.9824 38V2.4H86.3824C91.8824 2.4 96.1324 3.95 99.1324 7C102.132 10.1 103.632 14.5 103.632 20.2C103.632 25.95 102.132 30.35 99.1324 33.4C96.1324 36.5 91.8824 38 86.3824 38H71.9824ZM79.7324 31.5H85.3824C92.2824 31.5 95.7324 27.75 95.7324 20.2C95.7324 16.6 94.8824 13.8 93.1824 11.85C91.4824 9.9 88.8824 8.9 85.4324 8.9H79.7324V31.5ZM119.943 11.45C123.893 11.45 127.093 12.7 129.493 15.2C131.893 17.7 133.143 21 133.143 25.1C133.143 29.25 131.893 32.55 129.493 35.05C127.093 37.55 123.843 38.8 119.843 38.8C115.793 38.8 112.543 37.55 110.143 35.05C107.693 32.55 106.493 29.25 106.493 25.1C106.493 21 107.693 17.7 110.193 15.2C112.643 12.7 115.893 11.45 119.943 11.45ZM119.743 16.85C117.843 16.85 116.343 17.6 115.243 19.1C114.143 20.55 113.593 22.55 113.593 25.15C113.593 27.75 114.143 29.8 115.243 31.3C116.343 32.75 117.843 33.5 119.843 33.5C121.793 33.5 123.293 32.75 124.393 31.25C125.493 29.75 126.043 27.7 126.043 25.05C126.043 22.5 125.443 20.5 124.343 19.05C123.243 17.6 121.693 16.85 119.743 16.85ZM149.509 11.45C153.459 11.45 156.659 12.7 159.059 15.2C161.459 17.7 162.709 21 162.709 25.1C162.709 29.25 161.459 32.55 159.059 35.05C156.659 37.55 153.409 38.8 149.409 38.8C145.359 38.8 142.109 37.55 139.709 35.05C137.259 32.55 136.059 29.25 136.059 25.1C136.059 21 137.259 17.7 139.759 15.2C142.209 12.7 145.459 11.45 149.509 11.45ZM149.309 16.85C147.409 16.85 145.909 17.6 144.809 19.1C143.709 20.55 143.159 22.55 143.159 25.15C143.159 27.75 143.709 29.8 144.809 31.3C145.909 32.75 147.409 33.5 149.409 33.5C151.359 33.5 152.859 32.75 153.959 31.25C155.059 29.75 155.609 27.7 155.609 25.05C155.609 22.5 155.009 20.5 153.909 19.05C152.809 17.6 151.259 16.85 149.309 16.85ZM183.126 11.75V18.3C182.126 18.1 181.176 18 180.376 18C178.026 18 176.326 18.75 175.226 20.25C174.126 21.75 173.576 23.7 173.576 26.2V38H166.476V12.2H173.226V16.95C174.926 13.4 177.676 11.6 181.576 11.6C181.876 11.6 182.426 11.65 183.126 11.75ZM206.609 19.7L199.959 19.75C199.759 18.45 199.309 17.5 198.509 17C197.709 16.45 196.559 16.2 195.059 16.2C193.809 16.2 192.809 16.4 192.109 16.85C191.409 17.3 191.059 17.95 191.059 18.75C191.059 19.65 191.459 20.3 192.259 20.7C193.059 21.05 194.509 21.45 196.559 21.9C196.959 21.95 197.209 22 197.359 22.05C198.559 22.25 199.559 22.45 200.259 22.65C200.959 22.85 201.859 23.15 202.859 23.55C203.909 23.95 204.709 24.45 205.259 24.95C205.859 25.45 206.359 26.15 206.759 27C207.209 27.9 207.409 28.9 207.409 30C207.409 32.7 206.359 34.85 204.259 36.4C202.159 38 199.309 38.75 195.609 38.75C192.109 38.75 189.259 38 186.959 36.5C184.709 35 183.559 32.7 183.509 29.6H190.259C190.509 32.5 192.359 33.9 195.759 33.9C197.209 33.9 198.359 33.65 199.209 33.05C200.059 32.45 200.459 31.7 200.459 30.7C200.459 29.75 200.109 29.05 199.309 28.65C198.559 28.25 197.159 27.85 195.059 27.35C194.909 27.35 194.759 27.3 194.659 27.25C194.459 27.2 193.909 27.1 193.109 26.9C192.309 26.75 191.759 26.65 191.459 26.55C191.159 26.45 190.609 26.3 189.909 26.1C189.209 25.9 188.659 25.75 188.309 25.55C188.009 25.35 187.559 25.15 187.009 24.85C186.459 24.55 186.059 24.25 185.759 23.9C185.509 23.6 185.209 23.2 184.909 22.75C184.609 22.3 184.359 21.8 184.259 21.2C184.159 20.65 184.109 20.05 184.109 19.35C184.109 16.85 185.059 14.9 187.059 13.5C189.009 12.15 191.809 11.45 195.409 11.45C198.609 11.45 201.259 12.15 203.359 13.45C205.409 14.8 206.509 16.9 206.609 19.7ZM240.431 1.55C245.631 1.55 249.831 3.3 253.031 6.75C256.231 10.2 257.881 14.7 257.881 20.25C257.881 25.85 256.231 30.35 253.031 33.75C249.831 37.15 245.581 38.85 240.381 38.85C235.081 38.85 230.831 37.15 227.631 33.75C224.381 30.35 222.781 25.85 222.781 20.25C222.781 14.65 224.381 10.1 227.581 6.7C230.781 3.3 235.081 1.55 240.431 1.55ZM240.331 7.95C237.381 7.95 235.031 9.1 233.281 11.3C231.531 13.5 230.631 16.45 230.631 20.15C230.631 23.95 231.531 26.95 233.231 29.15C234.981 31.3 237.381 32.4 240.431 32.45C243.381 32.45 245.731 31.35 247.431 29.15C249.131 26.95 249.981 23.95 249.981 20.15C249.981 16.4 249.081 13.45 247.381 11.25C245.631 9.05 243.281 7.95 240.331 7.95ZM268.197 12.2V15.4C270.047 12.8 272.697 11.5 276.197 11.5C279.647 11.5 282.447 12.75 284.547 15.25C286.647 17.75 287.697 21.1 287.697 25.25C287.697 29.3 286.647 32.55 284.597 35C282.547 37.45 279.847 38.65 276.497 38.65C272.997 38.65 270.347 37.4 268.547 34.8V47.15H261.497V12.2H268.197ZM274.447 17.2C272.497 17.2 270.997 17.9 269.897 19.3C268.797 20.7 268.297 22.65 268.297 25.15C268.297 27.65 268.847 29.6 269.947 31C271.047 32.4 272.547 33.1 274.497 33.1C276.397 33.1 277.847 32.4 278.947 31C280.047 29.6 280.597 27.7 280.597 25.25C280.597 22.75 280.047 20.8 278.947 19.35C277.847 17.95 276.347 17.2 274.447 17.2ZM315.313 30C314.513 32.8 313.013 34.95 310.863 36.45C308.713 38 306.163 38.75 303.163 38.75C299.213 38.75 296.013 37.55 293.613 35.05C291.213 32.6 290.013 29.35 290.013 25.25C290.013 21.25 291.213 17.95 293.663 15.35C296.063 12.75 299.163 11.45 302.963 11.45C306.863 11.45 309.963 12.8 312.263 15.45C314.563 18.1 315.713 21.7 315.713 26.2V26.9H297.213C297.213 29.15 297.763 30.85 298.813 32C299.863 33.2 301.363 33.75 303.263 33.75C305.763 33.75 307.513 32.5 308.513 30H315.313ZM308.463 22.4C308.313 20.7 307.763 19.35 306.813 18.25C305.913 17.15 304.613 16.6 302.913 16.6C301.363 16.6 300.063 17.15 299.013 18.15C298.013 19.2 297.363 20.6 297.163 22.4H308.463ZM343.074 38H335.874V22.95C335.874 21.15 335.574 19.75 334.974 18.8C334.374 17.85 333.174 17.35 331.474 17.35C327.724 17.35 325.874 19.65 325.874 24.15V38H318.824V12.2H325.574V15.8C327.674 12.95 330.524 11.5 334.124 11.5C336.874 11.5 339.074 12.3 340.674 13.9C342.274 15.5 343.074 17.8 343.074 20.75V38ZM386.179 2.4V8.95H368.879V17.2H383.929V23.4H368.879V38H361.079V2.4H386.179ZM401.668 11.45C405.618 11.45 408.818 12.7 411.218 15.2C413.618 17.7 414.868 21 414.868 25.1C414.868 29.25 413.618 32.55 411.218 35.05C408.818 37.55 405.568 38.8 401.568 38.8C397.518 38.8 394.268 37.55 391.868 35.05C389.418 32.55 388.218 29.25 388.218 25.1C388.218 21 389.418 17.7 391.918 15.2C394.368 12.7 397.618 11.45 401.668 11.45ZM401.468 16.85C399.568 16.85 398.068 17.6 396.968 19.1C395.868 20.55 395.318 22.55 395.318 25.15C395.318 27.75 395.868 29.8 396.968 31.3C398.068 32.75 399.568 33.5 401.568 33.5C403.518 33.5 405.018 32.75 406.118 31.25C407.218 29.75 407.768 27.7 407.768 25.05C407.768 22.5 407.168 20.5 406.068 19.05C404.968 17.6 403.418 16.85 401.468 16.85ZM435.284 11.75V18.3C434.284 18.1 433.334 18 432.534 18C430.184 18 428.484 18.75 427.384 20.25C426.284 21.75 425.734 23.7 425.734 26.2V38H418.634V12.2H425.384V16.95C427.084 13.4 429.834 11.6 433.734 11.6C434.034 11.6 434.584 11.65 435.284 11.75ZM480.984 2.4L467.734 24.3V38H460.034V24.15L446.734 2.4H455.634L463.934 16.65L472.334 2.4H480.984ZM490.343 11.45C494.293 11.45 497.493 12.7 499.893 15.2C502.293 17.7 503.543 21 503.543 25.1C503.543 29.25 502.293 32.55 499.893 35.05C497.493 37.55 494.243 38.8 490.243 38.8C486.193 38.8 482.943 37.55 480.543 35.05C478.093 32.55 476.893 29.25 476.893 25.1C476.893 21 478.093 17.7 480.593 15.2C483.043 12.7 486.293 11.45 490.343 11.45ZM490.143 16.85C488.243 16.85 486.743 17.6 485.643 19.1C484.543 20.55 483.993 22.55 483.993 25.15C483.993 27.75 484.543 29.8 485.643 31.3C486.743 32.75 488.243 33.5 490.243 33.5C492.193 33.5 493.693 32.75 494.793 31.25C495.893 29.75 496.443 27.7 496.443 25.05C496.443 22.5 495.843 20.5 494.743 19.05C493.643 17.6 492.093 16.85 490.143 16.85ZM531.41 12.2V38H524.66V34.35C522.66 37.3 519.86 38.75 516.26 38.75C513.41 38.75 511.21 38 509.61 36.45C508.01 34.9 507.26 32.6 507.26 29.55V12.2H514.41V26.95C514.41 27.95 514.41 28.7 514.51 29.3C514.61 29.9 514.76 30.45 515.06 31.05C515.31 31.65 515.76 32.1 516.36 32.4C516.96 32.7 517.76 32.8 518.76 32.8C522.46 32.8 524.36 30.4 524.36 25.5V12.2H531.41Z" fill="#312922"/>
<path d="M2.51136 81.4545H4.52841L8.5625 88.2443H8.73295L12.767 81.4545H14.7841L9.52841 90.0057V96H7.76705V90.0057L2.51136 81.4545ZM19.7237 96.2273C18.7389 96.2273 17.8748 95.9929 17.1314 95.5241C16.3928 95.0554 15.8151 94.3996 15.3984 93.5568C14.9865 92.714 14.7805 91.7292 14.7805 90.6023C14.7805 89.4659 14.9865 88.474 15.3984 87.6264C15.8151 86.7789 16.3928 86.1207 17.1314 85.652C17.8748 85.1832 18.7389 84.9489 19.7237 84.9489C20.7086 84.9489 21.5703 85.1832 22.3089 85.652C23.0523 86.1207 23.63 86.7789 24.0419 87.6264C24.4586 88.474 24.6669 89.4659 24.6669 90.6023C24.6669 91.7292 24.4586 92.714 24.0419 93.5568C23.63 94.3996 23.0523 95.0554 22.3089 95.5241C21.5703 95.9929 20.7086 96.2273 19.7237 96.2273ZM19.7237 94.7216C20.4718 94.7216 21.0874 94.5298 21.5703 94.1463C22.0533 93.7628 22.4107 93.2585 22.6428 92.6335C22.8748 92.0085 22.9908 91.3314 22.9908 90.6023C22.9908 89.8731 22.8748 89.1937 22.6428 88.5639C22.4107 87.9342 22.0533 87.4252 21.5703 87.0369C21.0874 86.6487 20.4718 86.4545 19.7237 86.4545C18.9756 86.4545 18.3601 86.6487 17.8771 87.0369C17.3942 87.4252 17.0367 87.9342 16.8047 88.5639C16.5727 89.1937 16.4567 89.8731 16.4567 90.6023C16.4567 91.3314 16.5727 92.0085 16.8047 92.6335C17.0367 93.2585 17.3942 93.7628 17.8771 94.1463C18.3601 94.5298 18.9756 94.7216 19.7237 94.7216ZM34.1005 91.5398V85.0909H35.7766V96H34.1005V94.1534H33.9869C33.7312 94.7074 33.3335 95.1785 32.7937 95.5668C32.2539 95.9503 31.5721 96.142 30.7482 96.142C30.0664 96.142 29.4603 95.9929 28.93 95.6946C28.3997 95.3916 27.9831 94.937 27.68 94.331C27.377 93.7202 27.2255 92.9508 27.2255 92.0227V85.0909H28.9016V91.9091C28.9016 92.7045 29.1242 93.339 29.5692 93.8125C30.0191 94.286 30.592 94.5227 31.288 94.5227C31.7047 94.5227 32.1284 94.4162 32.5593 94.2031C32.9949 93.9901 33.3595 93.6634 33.6531 93.223C33.9513 92.7827 34.1005 92.2216 34.1005 91.5398ZM38.8466 96V85.0909H40.4659V86.7386H40.5795C40.7784 86.1989 41.1383 85.7609 41.6591 85.4247C42.1799 85.0885 42.767 84.9205 43.4205 84.9205C43.5436 84.9205 43.6974 84.9228 43.8821 84.9276C44.0668 84.9323 44.2064 84.9394 44.3011 84.9489V86.6534C44.2443 86.6392 44.1141 86.6179 43.9105 86.5895C43.7116 86.5563 43.5009 86.5398 43.2784 86.5398C42.7481 86.5398 42.2746 86.651 41.858 86.8736C41.446 87.0914 41.1193 87.3944 40.8778 87.7827C40.6411 88.1662 40.5227 88.6042 40.5227 89.0966V96H38.8466ZM60.0948 85.0909C60.0096 84.3712 59.6639 83.8125 59.0579 83.4148C58.4518 83.017 57.7085 82.8182 56.8278 82.8182C56.1838 82.8182 55.6204 82.9223 55.1374 83.1307C54.6592 83.339 54.2852 83.6255 54.0153 83.9901C53.7501 84.3546 53.6175 84.7689 53.6175 85.233C53.6175 85.6212 53.7099 85.955 53.8945 86.2344C54.0839 86.509 54.3254 86.7386 54.619 86.9233C54.9125 87.1032 55.2203 87.2524 55.5423 87.3707C55.8642 87.4844 56.1602 87.5767 56.43 87.6477L57.9073 88.0455C58.2861 88.1449 58.7075 88.2822 59.1715 88.4574C59.6403 88.6326 60.0877 88.8717 60.5138 89.1747C60.9447 89.473 61.2998 89.8565 61.5792 90.3253C61.8585 90.794 61.9982 91.3693 61.9982 92.0511C61.9982 92.8371 61.7923 93.5473 61.3803 94.1818C60.9731 94.8163 60.3765 95.3205 59.5906 95.6946C58.8093 96.0687 57.86 96.2557 56.7425 96.2557C55.7009 96.2557 54.7989 96.0876 54.0366 95.7514C53.279 95.4152 52.6824 94.9465 52.2468 94.3452C51.8159 93.7438 51.5721 93.0455 51.5153 92.25H53.3335C53.3808 92.7992 53.5655 93.2538 53.8874 93.6136C54.2141 93.9687 54.6261 94.2339 55.1232 94.4091C55.6251 94.5795 56.1649 94.6648 56.7425 94.6648C57.4149 94.6648 58.0186 94.5559 58.5536 94.3381C59.0887 94.1155 59.5124 93.8078 59.8249 93.4148C60.1374 93.017 60.2937 92.553 60.2937 92.0227C60.2937 91.5398 60.1587 91.1468 59.8888 90.8438C59.619 90.5407 59.2638 90.2945 58.8235 90.1051C58.3832 89.9157 57.9073 89.75 57.396 89.608L55.6062 89.0966C54.4698 88.7699 53.5702 88.3035 52.9073 87.6974C52.2444 87.0914 51.913 86.2983 51.913 85.3182C51.913 84.5038 52.1332 83.7936 52.5735 83.1875C53.0186 82.5767 53.6152 82.1032 54.3633 81.767C55.1161 81.4261 55.9566 81.2557 56.8846 81.2557C57.8221 81.2557 58.6554 81.4238 59.3846 81.7599C60.1138 82.0914 60.6914 82.5459 61.1175 83.1236C61.5484 83.7012 61.7757 84.357 61.7994 85.0909H60.0948ZM69.4112 85.0909V86.5114H63.7578V85.0909H69.4112ZM65.4055 82.4773H67.0817V92.875C67.0817 93.3485 67.1503 93.7036 67.2876 93.9403C67.4297 94.1723 67.6096 94.3286 67.8274 94.4091C68.05 94.4848 68.2843 94.5227 68.5305 94.5227C68.7152 94.5227 68.8667 94.5133 68.9851 94.4943C69.1035 94.4706 69.1982 94.4517 69.2692 94.4375L69.6101 95.9432C69.4964 95.9858 69.3378 96.0284 69.1342 96.071C68.9306 96.1184 68.6726 96.142 68.3601 96.142C67.8866 96.142 67.4226 96.0402 66.968 95.8366C66.5182 95.633 66.1442 95.3229 65.8459 94.9062C65.5523 94.4896 65.4055 93.964 65.4055 93.3295V82.4773ZM75.1428 96.2557C74.4515 96.2557 73.8241 96.1255 73.2607 95.8651C72.6972 95.5999 72.2498 95.2188 71.9183 94.7216C71.5869 94.2197 71.4212 93.6136 71.4212 92.9034C71.4212 92.2784 71.5443 91.7718 71.7905 91.3835C72.0367 90.9905 72.3658 90.6828 72.7777 90.4602C73.1896 90.2377 73.6442 90.072 74.1413 89.9631C74.6432 89.8494 75.1475 89.7595 75.6541 89.6932C76.317 89.608 76.8544 89.544 77.2663 89.5014C77.683 89.4541 77.986 89.3759 78.1754 89.267C78.3696 89.1581 78.4666 88.9687 78.4666 88.6989V88.642C78.4666 87.9413 78.2749 87.3968 77.8913 87.0085C77.5125 86.6203 76.9373 86.4261 76.1655 86.4261C75.3653 86.4261 74.7379 86.6013 74.2834 86.9517C73.8288 87.3021 73.5092 87.6761 73.3246 88.0739L71.7337 87.5057C72.0178 86.8428 72.3965 86.3267 72.87 85.9574C73.3482 85.5833 73.8691 85.3229 74.4325 85.1761C75.0007 85.0246 75.5594 84.9489 76.1087 84.9489C76.459 84.9489 76.8615 84.9915 77.3161 85.0767C77.7753 85.1572 78.218 85.3253 78.6442 85.581C79.075 85.8366 79.4325 86.2225 79.7166 86.7386C80.0007 87.2547 80.1428 87.946 80.1428 88.8125V96H78.4666V94.5227H78.3814C78.2678 94.7595 78.0784 95.0128 77.8132 95.2827C77.5481 95.5526 77.1953 95.7822 76.755 95.9716C76.3146 96.161 75.7772 96.2557 75.1428 96.2557ZM75.3984 94.75C76.0613 94.75 76.62 94.6198 77.0746 94.3594C77.5339 94.099 77.8795 93.7628 78.1115 93.3509C78.3482 92.9389 78.4666 92.5057 78.4666 92.0511V90.517C78.3956 90.6023 78.2393 90.6804 77.9979 90.7514C77.7611 90.8177 77.4865 90.8769 77.174 90.929C76.8662 90.9763 76.5656 91.0189 76.272 91.0568C75.9832 91.09 75.7488 91.1184 75.5689 91.142C75.1333 91.1989 74.7261 91.2912 74.3473 91.419C73.9732 91.5421 73.6702 91.7292 73.4382 91.9801C73.2109 92.2263 73.0973 92.5625 73.0973 92.9886C73.0973 93.571 73.3127 94.0114 73.7436 94.3097C74.1792 94.6032 74.7308 94.75 75.3984 94.75ZM83.2021 96V85.0909H84.8214V86.7386H84.935C85.1339 86.1989 85.4937 85.7609 86.0146 85.4247C86.5354 85.0885 87.1225 84.9205 87.7759 84.9205C87.899 84.9205 88.0529 84.9228 88.2376 84.9276C88.4222 84.9323 88.5619 84.9394 88.6566 84.9489V86.6534C88.5998 86.6392 88.4696 86.6179 88.266 86.5895C88.0671 86.5563 87.8564 86.5398 87.6339 86.5398C87.1036 86.5398 86.6301 86.651 86.2134 86.8736C85.8015 87.0914 85.4748 87.3944 85.2333 87.7827C84.9966 88.1662 84.8782 88.6042 84.8782 89.0966V96H83.2021ZM96.0714 85.0909V86.5114H90.418V85.0909H96.0714ZM92.0657 82.4773H93.7418V92.875C93.7418 93.3485 93.8105 93.7036 93.9478 93.9403C94.0898 94.1723 94.2698 94.3286 94.4876 94.4091C94.7101 94.4848 94.9445 94.5227 95.1907 94.5227C95.3754 94.5227 95.5269 94.5133 95.6452 94.4943C95.7636 94.4706 95.8583 94.4517 95.9293 94.4375L96.2702 95.9432C96.1566 95.9858 95.998 96.0284 95.7944 96.071C95.5908 96.1184 95.3327 96.142 95.0202 96.142C94.5468 96.142 94.0827 96.0402 93.6282 95.8366C93.1784 95.633 92.8043 95.3229 92.506 94.9062C92.2125 94.4896 92.0657 93.964 92.0657 93.3295V82.4773ZM105.468 91.5398V85.0909H107.144V96H105.468V94.1534H105.354C105.098 94.7074 104.701 95.1785 104.161 95.5668C103.621 95.9503 102.939 96.142 102.115 96.142C101.434 96.142 100.828 95.9929 100.297 95.6946C99.7669 95.3916 99.3503 94.937 99.0472 94.331C98.7442 93.7202 98.5927 92.9508 98.5927 92.0227V85.0909H100.269V91.9091C100.269 92.7045 100.491 93.339 100.936 93.8125C101.386 94.286 101.959 94.5227 102.655 94.5227C103.072 94.5227 103.496 94.4162 103.926 94.2031C104.362 93.9901 104.727 93.6634 105.02 93.223C105.319 92.7827 105.468 92.2216 105.468 91.5398ZM110.214 100.091V85.0909H111.833V86.8239H112.032C112.155 86.6345 112.326 86.393 112.543 86.0994C112.766 85.8011 113.083 85.536 113.495 85.304C113.912 85.0672 114.475 84.9489 115.185 84.9489C116.104 84.9489 116.914 85.1785 117.614 85.6378C118.315 86.0971 118.862 86.7481 119.255 87.5909C119.648 88.4337 119.844 89.428 119.844 90.5739C119.844 91.7292 119.648 92.7306 119.255 93.5781C118.862 94.4209 118.317 95.0743 117.621 95.5384C116.925 95.9976 116.123 96.2273 115.214 96.2273C114.513 96.2273 113.952 96.1113 113.531 95.8793C113.109 95.6425 112.785 95.375 112.558 95.0767C112.33 94.7737 112.155 94.5227 112.032 94.3239H111.89V100.091H110.214ZM111.862 90.5455C111.862 91.3693 111.982 92.0961 112.224 92.7259C112.465 93.3509 112.818 93.8409 113.282 94.196C113.746 94.5464 114.314 94.7216 114.987 94.7216C115.687 94.7216 116.272 94.5369 116.741 94.1676C117.214 93.7936 117.569 93.2917 117.806 92.6619C118.048 92.0275 118.168 91.322 118.168 90.5455C118.168 89.7784 118.05 89.0871 117.813 88.4716C117.581 87.8513 117.228 87.3613 116.755 87.0014C116.286 86.6368 115.697 86.4545 114.987 86.4545C114.305 86.4545 113.732 86.6274 113.268 86.973C112.804 87.3139 112.453 87.7921 112.217 88.4077C111.98 89.0185 111.862 89.7311 111.862 90.5455ZM127.487 81.4545V96H125.725V83.3011H125.64L122.089 85.6591V83.8693L125.725 81.4545H127.487ZM136.414 96.1989C135.344 96.1989 134.433 95.9077 133.68 95.3253C132.927 94.7382 132.352 93.8883 131.954 92.7756C131.556 91.6581 131.357 90.3087 131.357 88.7273C131.357 87.1553 131.556 85.813 131.954 84.7003C132.356 83.5829 132.934 82.7306 133.687 82.1435C134.444 81.5516 135.353 81.2557 136.414 81.2557C137.475 81.2557 138.381 81.5516 139.134 82.1435C139.892 82.7306 140.469 83.5829 140.867 84.7003C141.27 85.813 141.471 87.1553 141.471 88.7273C141.471 90.3087 141.272 91.6581 140.874 92.7756C140.477 93.8883 139.901 94.7382 139.148 95.3253C138.396 95.9077 137.484 96.1989 136.414 96.1989ZM136.414 94.6364C137.475 94.6364 138.299 94.125 138.886 93.1023C139.473 92.0795 139.766 90.6212 139.766 88.7273C139.766 87.4678 139.631 86.3954 139.362 85.5099C139.096 84.6245 138.713 83.9498 138.211 83.4858C137.714 83.0218 137.115 82.7898 136.414 82.7898C135.363 82.7898 134.541 83.3082 133.95 84.3452C133.358 85.3774 133.062 86.8381 133.062 88.7273C133.062 89.9867 133.194 91.0568 133.46 91.9375C133.725 92.8182 134.106 93.4882 134.603 93.9474C135.105 94.4067 135.709 94.6364 136.414 94.6364ZM148.914 96.1989C147.844 96.1989 146.933 95.9077 146.18 95.3253C145.427 94.7382 144.852 93.8883 144.454 92.7756C144.056 91.6581 143.857 90.3087 143.857 88.7273C143.857 87.1553 144.056 85.813 144.454 84.7003C144.856 83.5829 145.434 82.7306 146.187 82.1435C146.944 81.5516 147.853 81.2557 148.914 81.2557C149.975 81.2557 150.881 81.5516 151.634 82.1435C152.392 82.7306 152.969 83.5829 153.367 84.7003C153.77 85.813 153.971 87.1553 153.971 88.7273C153.971 90.3087 153.772 91.6581 153.374 92.7756C152.977 93.8883 152.401 94.7382 151.648 95.3253C150.896 95.9077 149.984 96.1989 148.914 96.1989ZM148.914 94.6364C149.975 94.6364 150.799 94.125 151.386 93.1023C151.973 92.0795 152.266 90.6212 152.266 88.7273C152.266 87.4678 152.131 86.3954 151.862 85.5099C151.596 84.6245 151.213 83.9498 150.711 83.4858C150.214 83.0218 149.615 82.7898 148.914 82.7898C147.863 82.7898 147.041 83.3082 146.45 84.3452C145.858 85.3774 145.562 86.8381 145.562 88.7273C145.562 89.9867 145.694 91.0568 145.96 91.9375C146.225 92.8182 146.606 93.4882 147.103 93.9474C147.605 94.4067 148.209 94.6364 148.914 94.6364ZM162.55 81.4545H164.653L169.596 93.5284H169.766L174.71 81.4545H176.812V96H175.164V84.9489H175.022L170.477 96H168.886L164.34 84.9489H164.198V96H162.55V81.4545ZM180.343 96V81.4545H185.429C186.442 81.4545 187.278 81.6297 187.936 81.9801C188.594 82.3258 189.084 82.7921 189.406 83.3793C189.728 83.9616 189.889 84.608 189.889 85.3182C189.889 85.9432 189.778 86.4593 189.555 86.8665C189.337 87.2737 189.048 87.5956 188.689 87.8324C188.333 88.0691 187.948 88.2443 187.531 88.358V88.5C187.976 88.5284 188.423 88.6847 188.873 88.9688C189.323 89.2528 189.699 89.66 190.002 90.1903C190.306 90.7206 190.457 91.3693 190.457 92.1364C190.457 92.8655 190.291 93.5213 189.96 94.1037C189.628 94.6861 189.105 95.1477 188.39 95.4886C187.675 95.8295 186.745 96 185.599 96H180.343ZM182.105 94.4375H185.599C186.75 94.4375 187.566 94.215 188.049 93.7699C188.537 93.3201 188.781 92.7756 188.781 92.1364C188.781 91.6439 188.655 91.1894 188.404 90.7727C188.154 90.3513 187.796 90.0152 187.332 89.7642C186.868 89.5085 186.319 89.3807 185.684 89.3807H182.105V94.4375ZM182.105 87.8466H185.372C185.902 87.8466 186.38 87.7424 186.806 87.5341C187.237 87.3258 187.578 87.0322 187.829 86.6534C188.085 86.2746 188.213 85.8295 188.213 85.3182C188.213 84.679 187.99 84.1368 187.545 83.6918C187.1 83.242 186.395 83.017 185.429 83.017H182.105V87.8466ZM197.84 96H193.351V81.4545H198.039C199.45 81.4545 200.657 81.7457 201.661 82.3281C202.665 82.9058 203.434 83.7367 203.969 84.821C204.504 85.9006 204.772 87.1932 204.772 88.6989C204.772 90.214 204.502 91.5185 203.962 92.6122C203.422 93.7012 202.636 94.5393 201.604 95.1264C200.572 95.7088 199.317 96 197.84 96ZM195.113 94.4375H197.726C198.929 94.4375 199.926 94.2055 200.716 93.7415C201.507 93.2775 202.096 92.617 202.485 91.7599C202.873 90.9029 203.067 89.8826 203.067 88.6989C203.067 87.5246 202.875 86.5137 202.492 85.6662C202.108 84.8139 201.535 84.1605 200.773 83.706C200.011 83.2467 199.061 83.017 197.925 83.017H195.113V94.4375ZM225.056 86H223.294C223.19 85.4934 223.008 85.0483 222.748 84.6648C222.492 84.2812 222.179 83.9593 221.81 83.6989C221.445 83.4337 221.041 83.2348 220.596 83.1023C220.15 82.9697 219.686 82.9034 219.203 82.9034C218.323 82.9034 217.525 83.1259 216.81 83.571C216.1 84.0161 215.534 84.6719 215.113 85.5384C214.696 86.4048 214.488 87.4678 214.488 88.7273C214.488 89.9867 214.696 91.0497 215.113 91.9162C215.534 92.7827 216.1 93.4384 216.81 93.8835C217.525 94.3286 218.323 94.5511 219.203 94.5511C219.686 94.5511 220.15 94.4848 220.596 94.3523C221.041 94.2197 221.445 94.0232 221.81 93.7628C222.179 93.4976 222.492 93.1733 222.748 92.7898C223.008 92.4015 223.19 91.9564 223.294 91.4545H225.056C224.923 92.1979 224.682 92.8632 224.331 93.4503C223.981 94.0374 223.545 94.5369 223.025 94.9489C222.504 95.3561 221.919 95.6662 221.27 95.8793C220.626 96.0923 219.937 96.1989 219.203 96.1989C217.963 96.1989 216.86 95.8958 215.894 95.2898C214.928 94.6837 214.168 93.822 213.614 92.7045C213.06 91.5871 212.783 90.2614 212.783 88.7273C212.783 87.1932 213.06 85.8674 213.614 84.75C214.168 83.6326 214.928 82.7708 215.894 82.1648C216.86 81.5587 217.963 81.2557 219.203 81.2557C219.937 81.2557 220.626 81.3622 221.27 81.5753C221.919 81.7884 222.504 82.1009 223.025 82.5128C223.545 82.92 223.981 83.4171 224.331 84.0043C224.682 84.5866 224.923 85.2519 225.056 86ZM232.249 96.2273C231.197 96.2273 230.291 95.9953 229.528 95.5312C228.771 95.0625 228.186 94.4091 227.774 93.571C227.367 92.7282 227.163 91.7481 227.163 90.6307C227.163 89.5133 227.367 88.5284 227.774 87.6761C228.186 86.8191 228.759 86.1515 229.493 85.6733C230.232 85.1903 231.093 84.9489 232.078 84.9489C232.646 84.9489 233.207 85.0436 233.761 85.233C234.315 85.4223 234.82 85.7301 235.274 86.1562C235.729 86.5777 236.091 87.1364 236.361 87.8324C236.631 88.5284 236.766 89.3854 236.766 90.4034V91.1136H228.357V89.6648H235.061C235.061 89.0492 234.938 88.5 234.692 88.017C234.45 87.5341 234.105 87.1529 233.655 86.8736C233.21 86.5942 232.684 86.4545 232.078 86.4545C231.411 86.4545 230.833 86.6203 230.345 86.9517C229.862 87.2784 229.491 87.7045 229.23 88.2301C228.97 88.7557 228.839 89.3191 228.839 89.9205V90.8864C228.839 91.7102 228.982 92.4086 229.266 92.9815C229.554 93.5497 229.955 93.983 230.466 94.2812C230.977 94.5748 231.571 94.7216 232.249 94.7216C232.689 94.7216 233.087 94.66 233.442 94.5369C233.802 94.4091 234.112 94.2197 234.372 93.9688C234.633 93.7131 234.834 93.3958 234.976 93.017L236.595 93.4716C236.425 94.0208 236.138 94.5038 235.736 94.9205C235.333 95.3324 234.836 95.6544 234.244 95.8864C233.652 96.1136 232.987 96.2273 232.249 96.2273ZM239.315 96V85.0909H240.935V86.7386H241.048C241.247 86.1989 241.607 85.7609 242.128 85.4247C242.649 85.0885 243.236 84.9205 243.889 84.9205C244.012 84.9205 244.166 84.9228 244.351 84.9276C244.536 84.9323 244.675 84.9394 244.77 84.9489V86.6534C244.713 86.6392 244.583 86.6179 244.379 86.5895C244.18 86.5563 243.97 86.5398 243.747 86.5398C243.217 86.5398 242.743 86.651 242.327 86.8736C241.915 87.0914 241.588 87.3944 241.347 87.7827C241.11 88.1662 240.991 88.6042 240.991 89.0966V96H239.315ZM252.185 85.0909V86.5114H246.531V85.0909H252.185ZM248.179 82.4773H249.855V92.875C249.855 93.3485 249.924 93.7036 250.061 93.9403C250.203 94.1723 250.383 94.3286 250.601 94.4091C250.823 94.4848 251.058 94.5227 251.304 94.5227C251.489 94.5227 251.64 94.5133 251.759 94.4943C251.877 94.4706 251.972 94.4517 252.043 94.4375L252.384 95.9432C252.27 95.9858 252.111 96.0284 251.908 96.071C251.704 96.1184 251.446 96.142 251.134 96.142C250.66 96.142 250.196 96.0402 249.741 95.8366C249.292 95.633 248.918 95.3229 248.619 94.9062C248.326 94.4896 248.179 93.964 248.179 93.3295V82.4773ZM254.706 96V85.0909H256.382V96H254.706ZM255.558 83.2727C255.232 83.2727 254.95 83.1615 254.713 82.9389C254.481 82.7164 254.365 82.4489 254.365 82.1364C254.365 81.8239 254.481 81.5563 254.713 81.3338C254.95 81.1113 255.232 81 255.558 81C255.885 81 256.164 81.1113 256.396 81.3338C256.633 81.5563 256.751 81.8239 256.751 82.1364C256.751 82.4489 256.633 82.7164 256.396 82.9389C256.164 83.1615 255.885 83.2727 255.558 83.2727ZM264.31 85.0909V86.5114H258.429V85.0909H264.31ZM260.191 96V83.5852C260.191 82.9602 260.337 82.4394 260.631 82.0227C260.925 81.6061 261.306 81.2936 261.775 81.0852C262.243 80.8769 262.738 80.7727 263.259 80.7727C263.671 80.7727 264.007 80.8059 264.267 80.8722C264.528 80.9384 264.722 81 264.85 81.0568L264.367 82.5057C264.282 82.4773 264.163 82.4418 264.012 82.3991C263.865 82.3565 263.671 82.3352 263.429 82.3352C262.875 82.3352 262.475 82.4749 262.229 82.7543C261.988 83.0336 261.867 83.4432 261.867 83.983V96H260.191ZM266.659 96V85.0909H268.335V96H266.659ZM267.511 83.2727C267.185 83.2727 266.903 83.1615 266.666 82.9389C266.434 82.7164 266.318 82.4489 266.318 82.1364C266.318 81.8239 266.434 81.5563 266.666 81.3338C266.903 81.1113 267.185 81 267.511 81C267.838 81 268.117 81.1113 268.349 81.3338C268.586 81.5563 268.705 81.8239 268.705 82.1364C268.705 82.4489 268.586 82.7164 268.349 82.9389C268.117 83.1615 267.838 83.2727 267.511 83.2727ZM275.837 96.2273C274.814 96.2273 273.934 95.9858 273.195 95.5028C272.456 95.0199 271.888 94.3546 271.49 93.5071C271.093 92.6596 270.894 91.6913 270.894 90.6023C270.894 89.4943 271.097 88.5166 271.505 87.669C271.917 86.8168 272.489 86.1515 273.223 85.6733C273.962 85.1903 274.824 84.9489 275.809 84.9489C276.576 84.9489 277.267 85.0909 277.882 85.375C278.498 85.6591 279.002 86.0568 279.395 86.5682C279.788 87.0795 280.032 87.6761 280.127 88.358H278.451C278.323 87.8608 278.039 87.4205 277.598 87.0369C277.163 86.6487 276.576 86.4545 275.837 86.4545C275.184 86.4545 274.611 86.625 274.118 86.9659C273.631 87.3021 273.249 87.7779 272.975 88.3935C272.705 89.0043 272.57 89.7216 272.57 90.5455C272.57 91.3883 272.703 92.1222 272.968 92.7472C273.238 93.3722 273.616 93.8575 274.104 94.2031C274.596 94.5488 275.174 94.7216 275.837 94.7216C276.273 94.7216 276.668 94.6458 277.023 94.4943C277.378 94.3428 277.679 94.125 277.925 93.8409C278.171 93.5568 278.346 93.2159 278.451 92.8182H280.127C280.032 93.4621 279.798 94.0421 279.424 94.5582C279.054 95.0696 278.564 95.4768 277.953 95.7798C277.347 96.0781 276.642 96.2273 275.837 96.2273ZM285.787 96.2557C285.096 96.2557 284.469 96.1255 283.905 95.8651C283.342 95.5999 282.894 95.2188 282.563 94.7216C282.231 94.2197 282.066 93.6136 282.066 92.9034C282.066 92.2784 282.189 91.7718 282.435 91.3835C282.681 90.9905 283.01 90.6828 283.422 90.4602C283.834 90.2377 284.289 90.072 284.786 89.9631C285.288 89.8494 285.792 89.7595 286.299 89.6932C286.962 89.608 287.499 89.544 287.911 89.5014C288.328 89.4541 288.631 89.3759 288.82 89.267C289.014 89.1581 289.111 88.9687 289.111 88.6989V88.642C289.111 87.9413 288.919 87.3968 288.536 87.0085C288.157 86.6203 287.582 86.4261 286.81 86.4261C286.01 86.4261 285.382 86.6013 284.928 86.9517C284.473 87.3021 284.154 87.6761 283.969 88.0739L282.378 87.5057C282.662 86.8428 283.041 86.3267 283.515 85.9574C283.993 85.5833 284.514 85.3229 285.077 85.1761C285.645 85.0246 286.204 84.9489 286.753 84.9489C287.104 84.9489 287.506 84.9915 287.961 85.0767C288.42 85.1572 288.863 85.3253 289.289 85.581C289.72 85.8366 290.077 86.2225 290.361 86.7386C290.645 87.2547 290.787 87.946 290.787 88.8125V96H289.111V94.5227H289.026C288.912 94.7595 288.723 95.0128 288.458 95.2827C288.193 95.5526 287.84 95.7822 287.4 95.9716C286.959 96.161 286.422 96.2557 285.787 96.2557ZM286.043 94.75C286.706 94.75 287.265 94.6198 287.719 94.3594C288.178 94.099 288.524 93.7628 288.756 93.3509C288.993 92.9389 289.111 92.5057 289.111 92.0511V90.517C289.04 90.6023 288.884 90.6804 288.642 90.7514C288.406 90.8177 288.131 90.8769 287.819 90.929C287.511 90.9763 287.21 91.0189 286.917 91.0568C286.628 91.09 286.393 91.1184 286.213 91.142C285.778 91.1989 285.371 91.2912 284.992 91.419C284.618 91.5421 284.315 91.7292 284.083 91.9801C283.855 92.2263 283.742 92.5625 283.742 92.9886C283.742 93.571 283.957 94.0114 284.388 94.3097C284.824 94.6032 285.375 94.75 286.043 94.75ZM298.591 85.0909V86.5114H292.938V85.0909H298.591ZM294.585 82.4773H296.261V92.875C296.261 93.3485 296.33 93.7036 296.467 93.9403C296.609 94.1723 296.789 94.3286 297.007 94.4091C297.23 94.4848 297.464 94.5227 297.71 94.5227C297.895 94.5227 298.046 94.5133 298.165 94.4943C298.283 94.4706 298.378 94.4517 298.449 94.4375L298.79 95.9432C298.676 95.9858 298.518 96.0284 298.314 96.071C298.11 96.1184 297.852 96.142 297.54 96.142C297.066 96.142 296.602 96.0402 296.148 95.8366C295.698 95.633 295.324 95.3229 295.026 94.9062C294.732 94.4896 294.585 93.964 294.585 93.3295V82.4773ZM305.569 96.2273C304.518 96.2273 303.611 95.9953 302.849 95.5312C302.091 95.0625 301.506 94.4091 301.094 93.571C300.687 92.7282 300.484 91.7481 300.484 90.6307C300.484 89.5133 300.687 88.5284 301.094 87.6761C301.506 86.8191 302.079 86.1515 302.813 85.6733C303.552 85.1903 304.414 84.9489 305.398 84.9489C305.967 84.9489 306.528 85.0436 307.082 85.233C307.636 85.4223 308.14 85.7301 308.594 86.1562C309.049 86.5777 309.411 87.1364 309.681 87.8324C309.951 88.5284 310.086 89.3854 310.086 90.4034V91.1136H301.677V89.6648H308.381C308.381 89.0492 308.258 88.5 308.012 88.017C307.771 87.5341 307.425 87.1529 306.975 86.8736C306.53 86.5942 306.004 86.4545 305.398 86.4545C304.731 86.4545 304.153 86.6203 303.665 86.9517C303.183 87.2784 302.811 87.7045 302.55 88.2301C302.29 88.7557 302.16 89.3191 302.16 89.9205V90.8864C302.16 91.7102 302.302 92.4086 302.586 92.9815C302.875 93.5497 303.275 93.983 303.786 94.2812C304.298 94.5748 304.892 94.7216 305.569 94.7216C306.009 94.7216 306.407 94.66 306.762 94.5369C307.122 94.4091 307.432 94.2197 307.692 93.9688C307.953 93.7131 308.154 93.3958 308.296 93.017L309.915 93.4716C309.745 94.0208 309.459 94.5038 309.056 94.9205C308.654 95.3324 308.156 95.6544 307.565 95.8864C306.973 96.1136 306.308 96.2273 305.569 96.2273ZM328.033 81.4545H329.795V91.0852C329.795 92.0795 329.56 92.9673 329.092 93.7486C328.628 94.5251 327.972 95.1383 327.124 95.5881C326.277 96.0331 325.282 96.2557 324.141 96.2557C323 96.2557 322.006 96.0331 321.158 95.5881C320.311 95.1383 319.653 94.5251 319.184 93.7486C318.72 92.9673 318.488 92.0795 318.488 91.0852V81.4545H320.249V90.9432C320.249 91.6534 320.406 92.2855 320.718 92.8395C321.031 93.3887 321.476 93.822 322.053 94.1392C322.636 94.4517 323.332 94.608 324.141 94.608C324.951 94.608 325.647 94.4517 326.229 94.1392C326.812 93.822 327.257 93.3887 327.565 92.8395C327.877 92.2855 328.033 91.6534 328.033 90.9432V81.4545ZM334.761 89.4375V96H333.085V85.0909H334.704V86.7955H334.846C335.102 86.2415 335.49 85.7964 336.011 85.4602C336.532 85.1193 337.204 84.9489 338.028 84.9489C338.767 84.9489 339.413 85.1004 339.967 85.4034C340.521 85.7017 340.952 86.1562 341.26 86.767C341.567 87.3731 341.721 88.1402 341.721 89.0682V96H340.045V89.1818C340.045 88.3248 339.823 87.6572 339.377 87.179C338.932 86.696 338.322 86.4545 337.545 86.4545C337.01 86.4545 336.532 86.5705 336.11 86.8026C335.694 87.0346 335.365 87.3731 335.123 87.8182C334.882 88.2633 334.761 88.803 334.761 89.4375ZM346.46 81.4545V96H344.784V81.4545H346.46ZM353.962 96.2273C352.977 96.2273 352.113 95.9929 351.37 95.5241C350.631 95.0554 350.053 94.3996 349.637 93.5568C349.225 92.714 349.019 91.7292 349.019 90.6023C349.019 89.4659 349.225 88.474 349.637 87.6264C350.053 86.7789 350.631 86.1207 351.37 85.652C352.113 85.1832 352.977 84.9489 353.962 84.9489C354.947 84.9489 355.809 85.1832 356.547 85.652C357.291 86.1207 357.868 86.7789 358.28 87.6264C358.697 88.474 358.905 89.4659 358.905 90.6023C358.905 91.7292 358.697 92.714 358.28 93.5568C357.868 94.3996 357.291 95.0554 356.547 95.5241C355.809 95.9929 354.947 96.2273 353.962 96.2273ZM353.962 94.7216C354.71 94.7216 355.326 94.5298 355.809 94.1463C356.292 93.7628 356.649 93.2585 356.881 92.6335C357.113 92.0085 357.229 91.3314 357.229 90.6023C357.229 89.8731 357.113 89.1937 356.881 88.5639C356.649 87.9342 356.292 87.4252 355.809 87.0369C355.326 86.6487 354.71 86.4545 353.962 86.4545C353.214 86.4545 352.598 86.6487 352.115 87.0369C351.632 87.4252 351.275 87.9342 351.043 88.5639C350.811 89.1937 350.695 89.8731 350.695 90.6023C350.695 91.3314 350.811 92.0085 351.043 92.6335C351.275 93.2585 351.632 93.7628 352.115 94.1463C352.598 94.5298 353.214 94.7216 353.962 94.7216ZM365.896 96.2273C364.873 96.2273 363.992 95.9858 363.254 95.5028C362.515 95.0199 361.947 94.3546 361.549 93.5071C361.151 92.6596 360.952 91.6913 360.952 90.6023C360.952 89.4943 361.156 88.5166 361.563 87.669C361.975 86.8168 362.548 86.1515 363.282 85.6733C364.021 85.1903 364.882 84.9489 365.867 84.9489C366.634 84.9489 367.326 85.0909 367.941 85.375C368.557 85.6591 369.061 86.0568 369.454 86.5682C369.847 87.0795 370.091 87.6761 370.185 88.358H368.509C368.381 87.8608 368.097 87.4205 367.657 87.0369C367.221 86.6487 366.634 86.4545 365.896 86.4545C365.242 86.4545 364.669 86.625 364.177 86.9659C363.689 87.3021 363.308 87.7779 363.033 88.3935C362.763 89.0043 362.629 89.7216 362.629 90.5455C362.629 91.3883 362.761 92.1222 363.026 92.7472C363.296 93.3722 363.675 93.8575 364.163 94.2031C364.655 94.5488 365.233 94.7216 365.896 94.7216C366.331 94.7216 366.727 94.6458 367.082 94.4943C367.437 94.3428 367.737 94.125 367.984 93.8409C368.23 93.5568 368.405 93.2159 368.509 92.8182H370.185C370.091 93.4621 369.856 94.0421 369.482 94.5582C369.113 95.0696 368.623 95.4768 368.012 95.7798C367.406 96.0781 366.701 96.2273 365.896 96.2273ZM374.198 92.0227L374.17 89.9489H374.511L379.283 85.0909H381.357L376.272 90.233H376.13L374.198 92.0227ZM372.636 96V81.4545H374.312V96H372.636ZM379.567 96L375.306 90.6023L376.499 89.4375L381.698 96H379.567ZM391.242 87.5341L389.736 87.9602C389.641 87.7093 389.502 87.4654 389.317 87.2287C389.137 86.9872 388.891 86.7884 388.578 86.6321C388.266 86.4759 387.866 86.3977 387.378 86.3977C386.711 86.3977 386.154 86.5516 385.709 86.8594C385.269 87.1624 385.049 87.5483 385.049 88.017C385.049 88.4337 385.2 88.7628 385.503 89.0043C385.806 89.2457 386.28 89.447 386.924 89.608L388.543 90.0057C389.518 90.2424 390.245 90.6046 390.723 91.0923C391.202 91.5753 391.441 92.1979 391.441 92.9602C391.441 93.5852 391.261 94.1439 390.901 94.6364C390.546 95.1288 390.049 95.517 389.409 95.8011C388.77 96.0852 388.027 96.2273 387.179 96.2273C386.067 96.2273 385.146 95.9858 384.417 95.5028C383.687 95.0199 383.226 94.3144 383.032 93.3864L384.623 92.9886C384.774 93.5758 385.06 94.0161 385.482 94.3097C385.908 94.6032 386.464 94.75 387.151 94.75C387.932 94.75 388.552 94.5843 389.012 94.2528C389.476 93.9167 389.708 93.5142 389.708 93.0455C389.708 92.6667 389.575 92.3494 389.31 92.0938C389.045 91.8333 388.638 91.6392 388.088 91.5114L386.27 91.0852C385.271 90.8485 384.537 90.4815 384.069 89.9844C383.605 89.4825 383.373 88.8551 383.373 88.1023C383.373 87.4867 383.545 86.9422 383.891 86.4688C384.241 85.9953 384.717 85.6236 385.319 85.3537C385.925 85.0838 386.611 84.9489 387.378 84.9489C388.458 84.9489 389.305 85.1856 389.921 85.6591C390.541 86.1326 390.981 86.7576 391.242 87.5341ZM402.799 96.2557C402.108 96.2557 401.48 96.1255 400.917 95.8651C400.353 95.5999 399.906 95.2188 399.575 94.7216C399.243 94.2197 399.077 93.6136 399.077 92.9034C399.077 92.2784 399.201 91.7718 399.447 91.3835C399.693 90.9905 400.022 90.6828 400.434 90.4602C400.846 90.2377 401.3 90.072 401.798 89.9631C402.299 89.8494 402.804 89.7595 403.31 89.6932C403.973 89.608 404.511 89.544 404.923 89.5014C405.339 89.4541 405.642 89.3759 405.832 89.267C406.026 89.1581 406.123 88.9687 406.123 88.6989V88.642C406.123 87.9413 405.931 87.3968 405.548 87.0085C405.169 86.6203 404.594 86.4261 403.822 86.4261C403.022 86.4261 402.394 86.6013 401.94 86.9517C401.485 87.3021 401.165 87.6761 400.981 88.0739L399.39 87.5057C399.674 86.8428 400.053 86.3267 400.526 85.9574C401.004 85.5833 401.525 85.3229 402.089 85.1761C402.657 85.0246 403.216 84.9489 403.765 84.9489C404.115 84.9489 404.518 84.9915 404.972 85.0767C405.432 85.1572 405.874 85.3253 406.3 85.581C406.731 85.8366 407.089 86.2225 407.373 86.7386C407.657 87.2547 407.799 87.946 407.799 88.8125V96H406.123V94.5227H406.038C405.924 94.7595 405.735 95.0128 405.469 95.2827C405.204 95.5526 404.852 95.7822 404.411 95.9716C403.971 96.161 403.433 96.2557 402.799 96.2557ZM403.055 94.75C403.718 94.75 404.276 94.6198 404.731 94.3594C405.19 94.099 405.536 93.7628 405.768 93.3509C406.004 92.9389 406.123 92.5057 406.123 92.0511V90.517C406.052 90.6023 405.896 90.6804 405.654 90.7514C405.417 90.8177 405.143 90.8769 404.83 90.929C404.522 90.9763 404.222 91.0189 403.928 91.0568C403.639 91.09 403.405 91.1184 403.225 91.142C402.79 91.1989 402.382 91.2912 402.004 91.419C401.629 91.5421 401.326 91.7292 401.094 91.9801C400.867 92.2263 400.754 92.5625 400.754 92.9886C400.754 93.571 400.969 94.0114 401.4 94.3097C401.835 94.6032 402.387 94.75 403.055 94.75ZM419.353 96L415.375 81.4545H417.165L420.205 93.3011H420.347L423.444 81.4545H425.432L428.529 93.3011H428.671L431.711 81.4545H433.5L429.523 96H427.705L424.495 84.4091H424.381L421.171 96H419.353ZM438.884 96.2273C437.899 96.2273 437.035 95.9929 436.292 95.5241C435.553 95.0554 434.975 94.3996 434.559 93.5568C434.147 92.714 433.941 91.7292 433.941 90.6023C433.941 89.4659 434.147 88.474 434.559 87.6264C434.975 86.7789 435.553 86.1207 436.292 85.652C437.035 85.1832 437.899 84.9489 438.884 84.9489C439.869 84.9489 440.73 85.1832 441.469 85.652C442.212 86.1207 442.79 86.7789 443.202 87.6264C443.619 88.474 443.827 89.4659 443.827 90.6023C443.827 91.7292 443.619 92.714 443.202 93.5568C442.79 94.3996 442.212 95.0554 441.469 95.5241C440.73 95.9929 439.869 96.2273 438.884 96.2273ZM438.884 94.7216C439.632 94.7216 440.248 94.5298 440.73 94.1463C441.213 93.7628 441.571 93.2585 441.803 92.6335C442.035 92.0085 442.151 91.3314 442.151 90.6023C442.151 89.8731 442.035 89.1937 441.803 88.5639C441.571 87.9342 441.213 87.4252 440.73 87.0369C440.248 86.6487 439.632 86.4545 438.884 86.4545C438.136 86.4545 437.52 86.6487 437.037 87.0369C436.554 87.4252 436.197 87.9342 435.965 88.5639C435.733 89.1937 435.617 89.8731 435.617 90.6023C435.617 91.3314 435.733 92.0085 435.965 92.6335C436.197 93.2585 436.554 93.7628 437.037 94.1463C437.52 94.5298 438.136 94.7216 438.884 94.7216ZM446.386 96V85.0909H448.005V86.7386H448.119C448.317 86.1989 448.677 85.7609 449.198 85.4247C449.719 85.0885 450.306 84.9205 450.96 84.9205C451.083 84.9205 451.237 84.9228 451.421 84.9276C451.606 84.9323 451.746 84.9394 451.84 84.9489V86.6534C451.783 86.6392 451.653 86.6179 451.45 86.5895C451.251 86.5563 451.04 86.5398 450.817 86.5398C450.287 86.5398 449.814 86.651 449.397 86.8736C448.985 87.0914 448.658 87.3944 448.417 87.7827C448.18 88.1662 448.062 88.6042 448.062 89.0966V96H446.386ZM455.503 81.4545V96H453.827V81.4545H455.503ZM462.692 96.2273C461.783 96.2273 460.981 95.9976 460.285 95.5384C459.589 95.0743 459.044 94.4209 458.651 93.5781C458.258 92.7306 458.062 91.7292 458.062 90.5739C458.062 89.428 458.258 88.4337 458.651 87.5909C459.044 86.7481 459.591 86.0971 460.292 85.6378C460.993 85.1785 461.802 84.9489 462.721 84.9489C463.431 84.9489 463.992 85.0672 464.404 85.304C464.821 85.536 465.138 85.8011 465.356 86.0994C465.578 86.393 465.751 86.6345 465.874 86.8239H466.016V81.4545H467.692V96H466.073V94.3239H465.874C465.751 94.5227 465.576 94.7737 465.349 95.0767C465.121 95.375 464.797 95.6425 464.376 95.8793C463.954 96.1113 463.393 96.2273 462.692 96.2273ZM462.92 94.7216C463.592 94.7216 464.16 94.5464 464.624 94.196C465.088 93.8409 465.441 93.3509 465.683 92.7259C465.924 92.0961 466.045 91.3693 466.045 90.5455C466.045 89.7311 465.926 89.0185 465.69 88.4077C465.453 87.7921 465.103 87.3139 464.638 86.973C464.174 86.6274 463.602 86.4545 462.92 86.4545C462.21 86.4545 461.618 86.6368 461.144 87.0014C460.675 87.3613 460.323 87.8513 460.086 88.4716C459.854 89.0871 459.738 89.7784 459.738 90.5455C459.738 91.322 459.856 92.0275 460.093 92.6619C460.335 93.2917 460.69 93.7936 461.158 94.1676C461.632 94.5369 462.219 94.7216 462.92 94.7216ZM481.052 96.2273C480.067 96.2273 479.203 95.9929 478.46 95.5241C477.721 95.0554 477.143 94.3996 476.727 93.5568C476.315 92.714 476.109 91.7292 476.109 90.6023C476.109 89.4659 476.315 88.474 476.727 87.6264C477.143 86.7789 477.721 86.1207 478.46 85.652C479.203 85.1832 480.067 84.9489 481.052 84.9489C482.037 84.9489 482.898 85.1832 483.637 85.652C484.38 86.1207 484.958 86.7789 485.37 87.6264C485.787 88.474 485.995 89.4659 485.995 90.6023C485.995 91.7292 485.787 92.714 485.37 93.5568C484.958 94.3996 484.38 95.0554 483.637 95.5241C482.898 95.9929 482.037 96.2273 481.052 96.2273ZM481.052 94.7216C481.8 94.7216 482.415 94.5298 482.898 94.1463C483.381 93.7628 483.739 93.2585 483.971 92.6335C484.203 92.0085 484.319 91.3314 484.319 90.6023C484.319 89.8731 484.203 89.1937 483.971 88.5639C483.739 87.9342 483.381 87.4252 482.898 87.0369C482.415 86.6487 481.8 86.4545 481.052 86.4545C480.304 86.4545 479.688 86.6487 479.205 87.0369C478.722 87.4252 478.365 87.9342 478.133 88.5639C477.901 89.1937 477.785 89.8731 477.785 90.6023C477.785 91.3314 477.901 92.0085 478.133 92.6335C478.365 93.2585 478.722 93.7628 479.205 94.1463C479.688 94.5298 480.304 94.7216 481.052 94.7216ZM493.412 85.0909V86.5114H487.531V85.0909H493.412ZM489.292 96V83.5852C489.292 82.9602 489.439 82.4394 489.733 82.0227C490.026 81.6061 490.407 81.2936 490.876 81.0852C491.345 80.8769 491.84 80.7727 492.36 80.7727C492.772 80.7727 493.109 80.8059 493.369 80.8722C493.629 80.9384 493.824 81 493.951 81.0568L493.468 82.5057C493.383 82.4773 493.265 82.4418 493.113 82.3991C492.967 82.3565 492.772 82.3352 492.531 82.3352C491.977 82.3352 491.577 82.4749 491.331 82.7543C491.089 83.0336 490.968 83.4432 490.968 83.983V96H489.292ZM501.613 96V81.4545H506.528C507.669 81.4545 508.602 81.6605 509.326 82.0724C510.055 82.4796 510.595 83.0312 510.945 83.7273C511.296 84.4233 511.471 85.1998 511.471 86.0568C511.471 86.9138 511.296 87.6927 510.945 88.3935C510.6 89.0942 510.065 89.6529 509.34 90.0696C508.616 90.4815 507.688 90.6875 506.556 90.6875H503.033V89.125H506.499C507.281 89.125 507.908 88.9901 508.381 88.7202C508.855 88.4503 509.198 88.0857 509.411 87.6264C509.629 87.1624 509.738 86.6392 509.738 86.0568C509.738 85.4744 509.629 84.9536 509.411 84.4943C509.198 84.035 508.853 83.6752 508.374 83.4148C507.896 83.1496 507.262 83.017 506.471 83.017H503.374V96H501.613ZM518.396 96.2273C517.411 96.2273 516.547 95.9929 515.803 95.5241C515.065 95.0554 514.487 94.3996 514.07 93.5568C513.658 92.714 513.452 91.7292 513.452 90.6023C513.452 89.4659 513.658 88.474 514.07 87.6264C514.487 86.7789 515.065 86.1207 515.803 85.652C516.547 85.1832 517.411 84.9489 518.396 84.9489C519.38 84.9489 520.242 85.1832 520.981 85.652C521.724 86.1207 522.302 86.7789 522.714 87.6264C523.13 88.474 523.339 89.4659 523.339 90.6023C523.339 91.7292 523.13 92.714 522.714 93.5568C522.302 94.3996 521.724 95.0554 520.981 95.5241C520.242 95.9929 519.38 96.2273 518.396 96.2273ZM518.396 94.7216C519.144 94.7216 519.759 94.5298 520.242 94.1463C520.725 93.7628 521.083 93.2585 521.315 92.6335C521.547 92.0085 521.663 91.3314 521.663 90.6023C521.663 89.8731 521.547 89.1937 521.315 88.5639C521.083 87.9342 520.725 87.4252 520.242 87.0369C519.759 86.6487 519.144 86.4545 518.396 86.4545C517.647 86.4545 517.032 86.6487 516.549 87.0369C516.066 87.4252 515.709 87.9342 515.477 88.5639C515.245 89.1937 515.129 89.8731 515.129 90.6023C515.129 91.3314 515.245 92.0085 515.477 92.6335C515.709 93.2585 516.066 93.7628 516.549 94.1463C517.032 94.5298 517.647 94.7216 518.396 94.7216ZM533.625 87.5341L532.119 87.9602C532.024 87.7093 531.885 87.4654 531.7 87.2287C531.52 86.9872 531.274 86.7884 530.961 86.6321C530.649 86.4759 530.249 86.3977 529.761 86.3977C529.093 86.3977 528.537 86.5516 528.092 86.8594C527.652 87.1624 527.431 87.5483 527.431 88.017C527.431 88.4337 527.583 88.7628 527.886 89.0043C528.189 89.2457 528.663 89.447 529.306 89.608L530.926 90.0057C531.901 90.2424 532.628 90.6046 533.106 91.0923C533.584 91.5753 533.824 92.1979 533.824 92.9602C533.824 93.5852 533.644 94.1439 533.284 94.6364C532.929 95.1288 532.431 95.517 531.792 95.8011C531.153 96.0852 530.41 96.2273 529.562 96.2273C528.449 96.2273 527.529 95.9858 526.799 95.5028C526.07 95.0199 525.609 94.3144 525.414 93.3864L527.005 92.9886C527.157 93.5758 527.443 94.0161 527.865 94.3097C528.291 94.6032 528.847 94.75 529.534 94.75C530.315 94.75 530.935 94.5843 531.395 94.2528C531.859 93.9167 532.091 93.5142 532.091 93.0455C532.091 92.6667 531.958 92.3494 531.693 92.0938C531.428 91.8333 531.02 91.6392 530.471 91.5114L528.653 91.0852C527.654 90.8485 526.92 90.4815 526.451 89.9844C525.987 89.4825 525.755 88.8551 525.755 88.1023C525.755 87.4867 525.928 86.9422 526.274 86.4688C526.624 85.9953 527.1 85.6236 527.701 85.3537C528.307 85.0838 528.994 84.9489 529.761 84.9489C530.841 84.9489 531.688 85.1856 532.304 85.6591C532.924 86.1326 533.364 86.7576 533.625 87.5341ZM544.074 87.5341L542.568 87.9602C542.473 87.7093 542.334 87.4654 542.149 87.2287C541.969 86.9872 541.723 86.7884 541.411 86.6321C541.098 86.4759 540.698 86.3977 540.21 86.3977C539.543 86.3977 538.986 86.5516 538.541 86.8594C538.101 87.1624 537.881 87.5483 537.881 88.017C537.881 88.4337 538.032 88.7628 538.335 89.0043C538.638 89.2457 539.112 89.447 539.756 89.608L541.375 90.0057C542.35 90.2424 543.077 90.6046 543.555 91.0923C544.034 91.5753 544.273 92.1979 544.273 92.9602C544.273 93.5852 544.093 94.1439 543.733 94.6364C543.378 95.1288 542.881 95.517 542.241 95.8011C541.602 96.0852 540.859 96.2273 540.011 96.2273C538.899 96.2273 537.978 95.9858 537.249 95.5028C536.519 95.0199 536.058 94.3144 535.864 93.3864L537.455 92.9886C537.606 93.5758 537.893 94.0161 538.314 94.3097C538.74 94.6032 539.296 94.75 539.983 94.75C540.764 94.75 541.384 94.5843 541.844 94.2528C542.308 93.9167 542.54 93.5142 542.54 93.0455C542.54 92.6667 542.407 92.3494 542.142 92.0938C541.877 91.8333 541.47 91.6392 540.92 91.5114L539.102 91.0852C538.103 90.8485 537.369 90.4815 536.901 89.9844C536.437 89.4825 536.205 88.8551 536.205 88.1023C536.205 87.4867 536.377 86.9422 536.723 86.4688C537.073 85.9953 537.549 85.6236 538.151 85.3537C538.757 85.0838 539.443 84.9489 540.21 84.9489C541.29 84.9489 542.137 85.1856 542.753 85.6591C543.373 86.1326 543.813 86.7576 544.074 87.5341ZM546.796 96V85.0909H548.472V96H546.796ZM547.648 83.2727C547.321 83.2727 547.04 83.1615 546.803 82.9389C546.571 82.7164 546.455 82.4489 546.455 82.1364C546.455 81.8239 546.571 81.5563 546.803 81.3338C547.04 81.1113 547.321 81 547.648 81C547.975 81 548.254 81.1113 548.486 81.3338C548.723 81.5563 548.841 81.8239 548.841 82.1364C548.841 82.4489 548.723 82.7164 548.486 82.9389C548.254 83.1615 547.975 83.2727 547.648 83.2727ZM551.769 96V81.4545H553.445V86.8239H553.587C553.71 86.6345 553.881 86.393 554.099 86.0994C554.321 85.8011 554.638 85.536 555.05 85.304C555.467 85.0672 556.031 84.9489 556.741 84.9489C557.659 84.9489 558.469 85.1785 559.17 85.6378C559.871 86.0971 560.417 86.7481 560.81 87.5909C561.203 88.4337 561.4 89.428 561.4 90.5739C561.4 91.7292 561.203 92.7306 560.81 93.5781C560.417 94.4209 559.873 95.0743 559.177 95.5384C558.481 95.9976 557.678 96.2273 556.769 96.2273C556.068 96.2273 555.507 96.1113 555.086 95.8793C554.665 95.6425 554.34 95.375 554.113 95.0767C553.886 94.7737 553.71 94.5227 553.587 94.3239H553.388V96H551.769ZM553.417 90.5455C553.417 91.3693 553.538 92.0961 553.779 92.7259C554.021 93.3509 554.373 93.8409 554.837 94.196C555.301 94.5464 555.87 94.7216 556.542 94.7216C557.243 94.7216 557.827 94.5369 558.296 94.1676C558.77 93.7936 559.125 93.2917 559.362 92.6619C559.603 92.0275 559.724 91.322 559.724 90.5455C559.724 89.7784 559.605 89.0871 559.369 88.4716C559.137 87.8513 558.784 87.3613 558.31 87.0014C557.842 86.6368 557.252 86.4545 556.542 86.4545C555.86 86.4545 555.287 86.6274 554.823 86.973C554.359 87.3139 554.009 87.7921 553.772 88.4077C553.535 89.0185 553.417 89.7311 553.417 90.5455ZM563.964 96V85.0909H565.64V96H563.964ZM564.816 83.2727C564.489 83.2727 564.208 83.1615 563.971 82.9389C563.739 82.7164 563.623 82.4489 563.623 82.1364C563.623 81.8239 563.739 81.5563 563.971 81.3338C564.208 81.1113 564.489 81 564.816 81C565.143 81 565.422 81.1113 565.654 81.3338C565.891 81.5563 566.009 81.8239 566.009 82.1364C566.009 82.4489 565.891 82.7164 565.654 82.9389C565.422 83.1615 565.143 83.2727 564.816 83.2727ZM570.386 81.4545V96H568.71V81.4545H570.386ZM573.456 96V85.0909H575.132V96H573.456ZM574.308 83.2727C573.982 83.2727 573.7 83.1615 573.463 82.9389C573.231 82.7164 573.115 82.4489 573.115 82.1364C573.115 81.8239 573.231 81.5563 573.463 81.3338C573.7 81.1113 573.982 81 574.308 81C574.635 81 574.914 81.1113 575.146 81.3338C575.383 81.5563 575.501 81.8239 575.501 82.1364C575.501 82.4489 575.383 82.7164 575.146 82.9389C574.914 83.1615 574.635 83.2727 574.308 83.2727ZM582.946 85.0909V86.5114H577.293V85.0909H582.946ZM578.941 82.4773H580.617V92.875C580.617 93.3485 580.685 93.7036 580.823 93.9403C580.965 94.1723 581.145 94.3286 581.363 94.4091C581.585 94.4848 581.819 94.5227 582.066 94.5227C582.25 94.5227 582.402 94.5133 582.52 94.4943C582.639 94.4706 582.733 94.4517 582.804 94.4375L583.145 95.9432C583.032 95.9858 582.873 96.0284 582.669 96.071C582.466 96.1184 582.208 96.142 581.895 96.142C581.422 96.142 580.958 96.0402 580.503 95.8366C580.053 95.633 579.679 95.3229 579.381 94.9062C579.087 94.4896 578.941 93.964 578.941 93.3295V82.4773ZM585.468 96V85.0909H587.144V96H585.468ZM586.32 83.2727C585.993 83.2727 585.712 83.1615 585.475 82.9389C585.243 82.7164 585.127 82.4489 585.127 82.1364C585.127 81.8239 585.243 81.5563 585.475 81.3338C585.712 81.1113 585.993 81 586.32 81C586.647 81 586.926 81.1113 587.158 81.3338C587.395 81.5563 587.513 81.8239 587.513 82.1364C587.513 82.4489 587.395 82.7164 587.158 82.9389C586.926 83.1615 586.647 83.2727 586.32 83.2727ZM594.788 96.2273C593.737 96.2273 592.83 95.9953 592.067 95.5312C591.31 95.0625 590.725 94.4091 590.313 93.571C589.906 92.7282 589.702 91.7481 589.702 90.6307C589.702 89.5133 589.906 88.5284 590.313 87.6761C590.725 86.8191 591.298 86.1515 592.032 85.6733C592.771 85.1903 593.632 84.9489 594.617 84.9489C595.185 84.9489 595.746 85.0436 596.3 85.233C596.854 85.4223 597.359 85.7301 597.813 86.1562C598.268 86.5777 598.63 87.1364 598.9 87.8324C599.17 88.5284 599.305 89.3854 599.305 90.4034V91.1136H590.896V89.6648H597.6C597.6 89.0492 597.477 88.5 597.231 88.017C596.989 87.5341 596.644 87.1529 596.194 86.8736C595.749 86.5942 595.223 86.4545 594.617 86.4545C593.95 86.4545 593.372 86.6203 592.884 86.9517C592.401 87.2784 592.03 87.7045 591.769 88.2301C591.509 88.7557 591.379 89.3191 591.379 89.9205V90.8864C591.379 91.7102 591.521 92.4086 591.805 92.9815C592.094 93.5497 592.494 93.983 593.005 94.2812C593.516 94.5748 594.111 94.7216 594.788 94.7216C595.228 94.7216 595.626 94.66 595.981 94.5369C596.341 94.4091 596.651 94.2197 596.911 93.9688C597.172 93.7131 597.373 93.3958 597.515 93.017L599.134 93.4716C598.964 94.0208 598.677 94.5038 598.275 94.9205C597.872 95.3324 597.375 95.6544 596.783 95.8864C596.192 96.1136 595.526 96.2273 594.788 96.2273ZM609.582 87.5341L608.076 87.9602C607.981 87.7093 607.842 87.4654 607.657 87.2287C607.477 86.9872 607.231 86.7884 606.918 86.6321C606.606 86.4759 606.206 86.3977 605.718 86.3977C605.05 86.3977 604.494 86.5516 604.049 86.8594C603.609 87.1624 603.388 87.5483 603.388 88.017C603.388 88.4337 603.54 88.7628 603.843 89.0043C604.146 89.2457 604.62 89.447 605.263 89.608L606.883 90.0057C607.858 90.2424 608.585 90.6046 609.063 91.0923C609.541 91.5753 609.781 92.1979 609.781 92.9602C609.781 93.5852 609.601 94.1439 609.241 94.6364C608.886 95.1288 608.388 95.517 607.749 95.8011C607.11 96.0852 606.367 96.2273 605.519 96.2273C604.406 96.2273 603.486 95.9858 602.756 95.5028C602.027 95.0199 601.566 94.3144 601.371 93.3864L602.962 92.9886C603.114 93.5758 603.4 94.0161 603.822 94.3097C604.248 94.6032 604.804 94.75 605.491 94.75C606.272 94.75 606.892 94.5843 607.352 94.2528C607.816 93.9167 608.048 93.5142 608.048 93.0455C608.048 92.6667 607.915 92.3494 607.65 92.0938C607.385 91.8333 606.978 91.6392 606.428 91.5114L604.61 91.0852C603.611 90.8485 602.877 90.4815 602.408 89.9844C601.944 89.4825 601.712 88.8551 601.712 88.1023C601.712 87.4867 601.885 86.9422 602.231 86.4688C602.581 85.9953 603.057 85.6236 603.658 85.3537C604.264 85.0838 604.951 84.9489 605.718 84.9489C606.798 84.9489 607.645 85.1856 608.261 85.6591C608.881 86.1326 609.321 86.7576 609.582 87.5341Z" fill="#475467"/>
<g filter="url(#filter0_ddi_4536_63130)">
<rect x="2" y="152" width="151" height="54" rx="14" fill="url(#paint0_linear_4536_63130)" shape-rendering="crispEdges"/>
<rect x="8" y="158" width="139" height="42" rx="10" fill="#28231F" fill-opacity="0.71"/>
<path d="M28.1775 182.253L27.5 184.625L26.8225 182.253C26.6474 181.641 26.3191 181.083 25.8685 180.632C25.418 180.182 24.8601 179.853 24.2475 179.678L21.875 179L24.2467 178.323C24.8593 178.147 25.4172 177.819 25.8677 177.369C26.3182 176.918 26.6466 176.36 26.8217 175.747L27.5 173.375L28.1775 175.747C28.3526 176.359 28.6809 176.917 29.1315 177.368C29.582 177.818 30.1399 178.147 30.7525 178.322L33.125 179L30.7533 179.677C30.1407 179.853 29.5828 180.181 29.1323 180.631C28.6818 181.082 28.3534 181.64 28.1783 182.252L28.1775 182.253ZM35.2158 176.262L35 177.125L34.7842 176.262C34.6606 175.768 34.405 175.316 34.0447 174.956C33.6843 174.595 33.2328 174.34 32.7383 174.216L31.875 174L32.7383 173.784C33.2328 173.66 33.6843 173.405 34.0447 173.044C34.405 172.684 34.6606 172.232 34.7842 171.738L35 170.875L35.2158 171.738C35.3394 172.232 35.5952 172.684 35.9557 173.044C36.3162 173.405 36.7679 173.661 37.2625 173.784L38.125 174L37.2625 174.216C36.7679 174.339 36.3162 174.595 35.9557 174.956C35.5952 175.316 35.3394 175.768 35.2158 176.262ZM34.0783 186.139L33.75 187.125L33.4217 186.139C33.3296 185.863 33.1745 185.612 32.9687 185.406C32.7629 185.2 32.512 185.045 32.2358 184.953L31.25 184.625L32.2358 184.297C32.512 184.205 32.7629 184.05 32.9687 183.844C33.1745 183.638 33.3296 183.387 33.4217 183.111L33.75 182.125L34.0783 183.111C34.1704 183.387 34.3255 183.638 34.5313 183.844C34.7371 184.05 34.988 184.205 35.2642 184.297L36.25 184.625L35.2642 184.953C34.988 185.045 34.7371 185.2 34.5313 185.406C34.3255 185.612 34.1704 185.863 34.0783 186.139Z" fill="white"/>
<path d="M45.5903 185L50.1254 172.317H52.6743L57.2094 185H54.8276L53.7553 181.722H49.0356L47.9633 185H45.5903ZM51.3735 174.576L49.6069 179.973H53.184L51.4262 174.576H51.3735ZM58.7032 188.076V175.684H60.8917V177.292H60.9356C61.4718 176.176 62.4913 175.49 63.8272 175.49C66.1915 175.49 67.6856 177.336 67.6856 180.342V180.351C67.6856 183.339 66.1915 185.185 63.8536 185.185C62.5264 185.185 61.463 184.517 60.9356 183.427H60.8917V188.076H58.7032ZM63.1768 183.339C64.5743 183.339 65.4532 182.188 65.4532 180.351V180.342C65.4532 178.479 64.5743 177.336 63.1768 177.336C61.8233 177.336 60.8741 178.514 60.8741 180.342V180.351C60.8741 182.17 61.8233 183.339 63.1768 183.339ZM69.4519 188.076V175.684H71.6404V177.292H71.6843C72.2204 176.176 73.24 175.49 74.5759 175.49C76.9402 175.49 78.4343 177.336 78.4343 180.342V180.351C78.4343 183.339 76.9402 185.185 74.6023 185.185C73.2751 185.185 72.2116 184.517 71.6843 183.427H71.6404V188.076H69.4519ZM73.9255 183.339C75.323 183.339 76.2019 182.188 76.2019 180.351V180.342C76.2019 178.479 75.323 177.336 73.9255 177.336C72.572 177.336 71.6228 178.514 71.6228 180.342V180.351C71.6228 182.17 72.572 183.339 73.9255 183.339ZM80.2621 185V172.317H82.4506V185H80.2621ZM85.9219 188.094C85.5 188.094 85.0605 188.041 84.7969 187.997V186.327C84.9639 186.362 85.2188 186.406 85.5264 186.406C86.3613 186.406 86.8271 186.169 87.1084 185.387L87.2402 185.009L83.8916 175.684H86.2822L88.4619 183.137H88.5234L90.7119 175.684H93.0146L89.666 185.316C88.9541 187.364 87.8643 188.094 85.9219 188.094ZM98.5686 185V172.317H100.608L106.786 181.203H106.839V172.317H109.089V185H107.068L100.871 176.079H100.827V185H98.5686ZM115.593 185.185C112.851 185.185 111.084 183.356 111.084 180.342V180.324C111.084 177.336 112.877 175.49 115.584 175.49C118.3 175.49 120.101 177.318 120.101 180.324V180.342C120.101 183.365 118.326 185.185 115.593 185.185ZM115.601 183.418C116.981 183.418 117.869 182.293 117.869 180.342V180.324C117.869 178.382 116.973 177.266 115.584 177.266C114.222 177.266 113.316 178.391 113.316 180.324V180.342C113.316 182.302 114.204 183.418 115.601 183.418ZM123.634 185L121.112 175.684H123.309L124.882 182.838H124.926L126.746 175.684H128.846L130.666 182.838H130.718L132.292 175.684H134.454L131.931 185H129.628L127.792 178.188H127.748L125.919 185H123.634Z" fill="white"/>
</g>
<defs>
<filter id="filter0_ddi_4536_63130" x="0" y="149" width="156" height="60" filterUnits="userSpaceOnUse" color-interpolation-filters="sRGB">
<feFlood flood-opacity="0" result="BackgroundImageFix"/>
<feColorMatrix in="SourceAlpha" type="matrix" values="0 0 0 0 0 0 0 0 0 0 0 0 0 0 0 0 0 0 127 0" result="hardAlpha"/>
<feOffset dy="-1"/>
<feGaussianBlur stdDeviation="1"/>
<feComposite in2="hardAlpha" operator="out"/>
<feColorMatrix type="matrix" values="0 0 0 0 0 0 0 0 0 0 0 0 0 0 0 0 0 0 0.21 0"/>
<feBlend mode="normal" in2="BackgroundImageFix" result="effect1_dropShadow_4536_63130"/>
<feColorMatrix in="SourceAlpha" type="matrix" values="0 0 0 0 0 0 0 0 0 0 0 0 0 0 0 0 0 0 127 0" result="hardAlpha"/>
<feOffset dx="1" dy="1"/>
<feGaussianBlur stdDeviation="1"/>
<feComposite in2="hardAlpha" operator="out"/>
<feColorMatrix type="matrix" values="0 0 0 0 1 0 0 0 0 1 0 0 0 0 1 0 0 0 0.24 0"/>
<feBlend mode="normal" in2="effect1_dropShadow_4536_63130" result="effect2_dropShadow_4536_63130"/>
<feBlend mode="normal" in="SourceGraphic" in2="effect2_dropShadow_4536_63130" result="shape"/>
<feColorMatrix in="SourceAlpha" type="matrix" values="0 0 0 0 0 0 0 0 0 0 0 0 0 0 0 0 0 0 127 0" result="hardAlpha"/>
<feOffset dy="-2"/>
<feGaussianBlur stdDeviation="2"/>
<feComposite in2="hardAlpha" operator="arithmetic" k2="-1" k3="1"/>
<feColorMatrix type="matrix" values="0 0 0 0 0.241173 0 0 0 0 0.123042 0 0 0 0 0.0327057 0 0 0 0.38 0"/>
<feBlend mode="normal" in2="shape" result="effect3_innerShadow_4536_63130"/>
</filter>
<linearGradient id="paint0_linear_4536_63130" x1="52.0127" y1="210" x2="53.601" y2="173.176" gradientUnits="userSpaceOnUse">
<stop stop-color="#2D2017"/>
<stop offset="1" stop-color="#6C4F3C"/>
</linearGradient>
</defs>
</svg>
