<svg width="16" height="16" viewBox="0 0 16 16" fill="none" xmlns="http://www.w3.org/2000/svg">
<path d="M13.5326 5.5322L8.53255 10.5322C8.46287 10.6021 8.38008 10.6576 8.28892 10.6955C8.19775 10.7333 8.10001 10.7528 8.0013 10.7528C7.90259 10.7528 7.80485 10.7333 7.71369 10.6955C7.62252 10.6576 7.53973 10.6021 7.47005 10.5322L2.47005 5.5322C2.32915 5.3913 2.25 5.20021 2.25 5.00095C2.25 4.80169 2.32915 4.6106 2.47005 4.4697C2.61095 4.3288 2.80204 4.24965 3.0013 4.24965C3.20056 4.24965 3.39165 4.3288 3.53255 4.4697L8.00193 8.93907L12.4713 4.46907C12.6122 4.32818 12.8033 4.24902 13.0026 4.24902C13.2018 4.24902 13.3929 4.32818 13.5338 4.46907C13.6747 4.60997 13.7539 4.80107 13.7539 5.00032C13.7539 5.19958 13.6747 5.39068 13.5338 5.53157L13.5326 5.5322Z" fill="#312922"/>
</svg>
