<svg width="259" height="207" viewBox="0 0 259 207" fill="none" xmlns="http://www.w3.org/2000/svg">
<g style="mix-blend-mode:color-dodge" opacity="0.07">
<path d="M0.015625 132.448V113.712C0.015625 113.712 19.735 115.366 23.2453 97.3887H45.5045V206.495H19.033V132.448H0.015625Z" fill="#FFDA9A"/>
<path d="M0.015625 132.448V113.712C0.015625 113.712 19.735 115.366 23.2453 97.3887H45.5045V206.495H19.033V132.448H0.015625Z" fill="#FFDA9A" stroke="#DDDDDD" stroke-width="0.0335442" stroke-miterlimit="10"/>
<path d="M183.541 74.7658C183.479 74.8242 183.397 74.8631 183.314 74.8631C183.294 74.8631 183.273 74.8631 183.232 74.8631L143.442 64.1626V106.245C143.339 106.187 143.256 106.128 143.173 106.07V63.8123L183.314 74.6102L129.504 0.270501L76.3752 74.6102L115.504 64.1236L115.731 97.3926C115.628 97.3926 115.546 97.3732 115.463 97.3732L115.236 64.4738L76.4578 74.8631C76.4371 74.8631 76.4164 74.8631 76.3752 74.8631C76.2926 74.8631 76.21 74.8242 76.148 74.7658C76.0861 74.6685 76.0861 74.5518 76.148 74.474L129.277 0.134311C129.318 0.0564889 129.401 0.0175781 129.504 0.0175781C129.587 0.0175781 129.69 0.0564889 129.731 0.134311L183.541 74.4545C183.603 74.5518 183.603 74.6685 183.541 74.7658Z" fill="#FFDA9A" stroke="#DDDDDD" stroke-width="0.0335442" stroke-miterlimit="10"/>
<path d="M138.007 135.659L137.987 135.718L137.925 135.659L135.53 132.644C135.488 132.585 135.426 132.546 135.385 132.488L135.344 132.449L135.447 132.488L136.149 132.78C136.149 132.78 137.594 135.095 137.925 135.601V135.62C137.925 135.64 137.945 135.64 137.945 135.659C137.945 135.659 137.945 135.659 137.966 135.679C137.987 135.64 137.987 135.64 138.007 135.659Z" fill="#FFDA9A" stroke="#DDDDDD" stroke-width="0.0335442" stroke-miterlimit="10"/>
<path d="M169.614 151.946C169.614 153.094 169.573 154.222 169.511 155.331C169.367 154.222 169.305 153.074 169.305 151.946C169.305 150.798 169.367 149.669 169.511 148.541C169.573 149.669 169.614 150.798 169.614 151.946Z" fill="#FFDA9A" stroke="#DDDDDD" stroke-width="0.0335442" stroke-miterlimit="10"/>
<path d="M169.511 148.541C169.367 149.65 169.305 150.798 169.305 151.946C169.305 153.094 169.367 154.222 169.511 155.331C169.594 154.203 169.614 153.074 169.614 151.946C169.635 150.798 169.594 149.669 169.511 148.541Z" fill="#FFDA9A" stroke="#DDDDDD" stroke-width="0.0335442" stroke-miterlimit="10"/>
<path d="M137.991 135.623L135.657 132.685L135.492 132.471L136.194 132.763C136.194 132.763 137.64 135.078 137.97 135.584V135.603C137.991 135.603 137.991 135.603 137.991 135.623Z" fill="#FFDA9A" stroke="#DDDDDD" stroke-width="0.0335442" stroke-miterlimit="10"/>
<path d="M258.971 151.943C258.971 182.08 233.057 206.496 201.073 206.496C187.445 206.496 174.911 202.061 165.02 194.629C164.298 194.084 163.575 193.52 162.873 192.936C171.401 183.403 175.159 171.243 175.592 169.764C176.232 170.562 176.893 171.321 177.616 172.041C183.356 177.916 191.595 181.593 200.763 181.593C218.149 181.593 232.252 168.305 232.252 151.924C232.252 135.542 218.149 122.254 200.763 122.254C184.595 122.254 171.256 133.733 169.48 148.538C169.336 149.647 169.274 150.795 169.274 151.943C169.274 153.091 169.336 154.219 169.48 155.328C168.716 167.177 163.946 178.014 156.41 186.632C156.389 186.652 156.368 186.671 156.348 186.691C145.693 198.85 129.587 206.613 111.54 206.613C79.4731 206.613 53.4766 182.119 53.4766 151.904C53.4766 121.69 79.4731 97.1952 111.54 97.1952C112.862 97.1952 114.183 97.2341 115.484 97.3119C115.567 97.3119 115.67 97.3314 115.753 97.3314L115.526 64.0624L76.3758 74.6073L129.505 0.267578L183.336 74.6073L143.195 63.8094V106.067C143.277 106.125 143.381 106.184 143.463 106.242C145.383 107.429 147.242 108.752 148.997 110.153C149.059 110.211 149.141 110.269 149.224 110.328C149.782 110.775 150.318 111.223 150.855 111.69C142.018 121.768 138.28 134.764 138.033 135.659C138.033 135.659 138.033 135.659 138.012 135.639C138.012 135.639 138.012 135.639 138.012 135.62C138.012 135.62 138.012 135.62 137.991 135.6C137.991 135.6 137.991 135.581 137.971 135.562V135.542C137.64 135.036 136.195 132.721 136.195 132.721L135.493 132.429L135.389 132.39L135.431 132.429C129.649 126.126 121.101 122.157 111.561 122.157C94.113 122.157 79.9893 135.484 79.9893 151.904C79.9893 168.344 94.1336 181.652 111.561 181.652C129.009 181.652 143.133 168.325 143.133 151.904C143.133 138.694 148.088 126.573 156.368 117.137C156.389 117.157 156.41 117.176 156.43 117.215C167.044 105.094 183.108 97.3703 201.093 97.3703C233.037 97.3897 258.971 121.806 258.971 151.943Z" fill="#FFDA9A" stroke="#DDDDDD" stroke-width="0.0335442" stroke-miterlimit="10"/>
<path d="M169.614 151.946C169.614 153.094 169.573 154.222 169.511 155.331C169.367 154.222 169.305 153.074 169.305 151.946C169.305 150.798 169.367 149.669 169.511 148.541C169.573 149.669 169.614 150.798 169.614 151.946Z" fill="#FFDA9A" stroke="#DDDDDD" stroke-width="0.0335442" stroke-miterlimit="10"/>
<path d="M137.966 135.621L135.633 132.684C136.459 133.598 137.243 134.571 137.945 135.582V135.602C137.966 135.602 137.966 135.602 137.966 135.621Z" fill="#FFDA9A" stroke="#DDDDDD" stroke-width="0.0335442" stroke-miterlimit="10"/>
<path d="M138.007 135.659L137.987 135.718L137.925 135.659L135.385 132.488L135.344 132.449L135.447 132.488L136.149 132.78C136.149 132.78 137.594 135.095 137.925 135.601V135.62C137.925 135.64 137.945 135.64 137.945 135.659C137.945 135.659 137.945 135.659 137.966 135.679C137.987 135.64 137.987 135.64 138.007 135.659Z" fill="#FFDA9A" stroke="#DDDDDD" stroke-width="0.0335442" stroke-miterlimit="10"/>
</g>
</svg>
